# xmcd CD database file
#
# Track frame offsets:
#	183
#	15198
#	28545
#	43075
#	55673
#	69380
#	82388
#	96315
#	110120
#	123698
#	136163
#	149600
#	160490
#	173098
#	186270
#	199853
#	211885
#
# Disc length: 2999 seconds
#
# Revision: 0
# Processed by: cddbd v1.5.2PL0 Copyright (c) Steve Scherf et al.
# Submitted via: CDex 1.51
#
DISCID=fb0bb511
DTITLE=Don Byas - Living My Life
DYEAR=1976
DGENRE=Jazz
TTITLE0=Candy
TTITLE1=How High The Moon
TTITLE2=Donby
TTITLE3=Byas A Drink
TTITLE4=I Don't Know Why
TTITLE5=Danny Boy
TTITLE6=Old Folks
TTITLE7=Cherokee
TTITLE8=September In The Rain
TTITLE9=Living My Life
TTITLE10=To Each His Own
TTITLE11=They Say It's Wonderfull
TTITLE12=Cynthia's In Love
TTITLE13=September Song
TTITLE14=Saint-Louis Blues
TTITLE15=I Found A New Baby
TTITLE16=Marie
EXTD=YEAR: 1976
EXTT0=
EXTT1=
EXTT2=
EXTT3=
EXTT4=
EXTT5=
EXTT6=
EXTT7=
EXTT8=
EXTT9=
EXTT10=
EXTT11=
EXTT12=
EXTT13=
EXTT14=
EXTT15=
EXTT16=
PLAYORDER=
